<mxfile host="65bd71144e">
    <diagram id="jK1F8D58ch56xzJ1OpHW" name="Page-1">
        <mxGraphModel dx="2334" dy="1076" grid="1" gridSize="10" guides="1" tooltips="1" connect="1" arrows="1" fold="1" page="1" pageScale="1" pageWidth="1100" pageHeight="850" math="0" shadow="0">
            <root>
                <mxCell id="0"/>
                <mxCell id="1" parent="0"/>
                <mxCell id="37" style="edgeStyle=none;html=1;entryX=0.06;entryY=0.761;entryDx=0;entryDy=0;entryPerimeter=0;" edge="1" parent="1" source="38" target="53">
                    <mxGeometry relative="1" as="geometry">
                        <Array as="points">
                            <mxPoint x="347" y="220"/>
                        </Array>
                    </mxGeometry>
                </mxCell>
                <mxCell id="38" value="Item1" style="rounded=0;whiteSpace=wrap;html=1;" vertex="1" parent="1">
                    <mxGeometry x="70" y="200" width="100" height="50" as="geometry"/>
                </mxCell>
                <mxCell id="39" style="edgeStyle=none;html=1;entryX=0.711;entryY=0.981;entryDx=0;entryDy=0;entryPerimeter=0;" edge="1" parent="1" source="40" target="53">
                    <mxGeometry relative="1" as="geometry">
                        <Array as="points">
                            <mxPoint x="425" y="490"/>
                        </Array>
                    </mxGeometry>
                </mxCell>
                <mxCell id="40" value="Item5" style="rounded=0;whiteSpace=wrap;html=1;" vertex="1" parent="1">
                    <mxGeometry x="70" y="470" width="100" height="45" as="geometry"/>
                </mxCell>
                <mxCell id="41" style="edgeStyle=none;html=1;entryX=0.5;entryY=1;entryDx=0;entryDy=0;" edge="1" parent="1" source="42" target="53">
                    <mxGeometry relative="1" as="geometry">
                        <Array as="points">
                            <mxPoint x="400" y="430"/>
                        </Array>
                    </mxGeometry>
                </mxCell>
                <mxCell id="42" value="Item4" style="rounded=0;whiteSpace=wrap;html=1;" vertex="1" parent="1">
                    <mxGeometry x="70" y="405" width="100" height="45" as="geometry"/>
                </mxCell>
                <mxCell id="43" style="edgeStyle=none;html=1;entryX=0.346;entryY=0.969;entryDx=0;entryDy=0;entryPerimeter=0;" edge="1" parent="1" source="44" target="53">
                    <mxGeometry relative="1" as="geometry">
                        <Array as="points">
                            <mxPoint x="380" y="360"/>
                        </Array>
                    </mxGeometry>
                </mxCell>
                <mxCell id="44" value="Item3" style="rounded=0;whiteSpace=wrap;html=1;" vertex="1" parent="1">
                    <mxGeometry x="70" y="340" width="100" height="45" as="geometry"/>
                </mxCell>
                <mxCell id="45" style="edgeStyle=none;html=1;entryX=0;entryY=1;entryDx=0;entryDy=0;" edge="1" parent="1" source="46" target="53">
                    <mxGeometry relative="1" as="geometry">
                        <Array as="points">
                            <mxPoint x="360" y="293"/>
                        </Array>
                    </mxGeometry>
                </mxCell>
                <mxCell id="46" value="Item2" style="rounded=0;whiteSpace=wrap;html=1;" vertex="1" parent="1">
                    <mxGeometry x="70" y="270" width="100" height="45" as="geometry"/>
                </mxCell>
                <mxCell id="47" value="Pipeline processing" style="text;html=1;align=center;verticalAlign=middle;resizable=0;points=[];autosize=1;strokeColor=none;fillColor=none;" vertex="1" parent="1">
                    <mxGeometry x="65" y="110" width="130" height="30" as="geometry"/>
                </mxCell>
                <mxCell id="48" style="edgeStyle=none;html=1;entryX=1;entryY=0;entryDx=0;entryDy=0;exitX=0.083;exitY=0.188;exitDx=0;exitDy=0;exitPerimeter=0;" edge="1" parent="1" source="53" target="57">
                    <mxGeometry relative="1" as="geometry">
                        <Array as="points">
                            <mxPoint x="350" y="30"/>
                            <mxPoint x="722" y="30"/>
                        </Array>
                    </mxGeometry>
                </mxCell>
                <mxCell id="49" style="edgeStyle=none;html=1;entryX=0.771;entryY=0.047;entryDx=0;entryDy=0;entryPerimeter=0;exitX=0;exitY=0;exitDx=0;exitDy=0;" edge="1" parent="1" source="53" target="57">
                    <mxGeometry relative="1" as="geometry">
                        <Array as="points">
                            <mxPoint x="358" y="40"/>
                            <mxPoint x="713" y="40"/>
                        </Array>
                    </mxGeometry>
                </mxCell>
                <mxCell id="50" style="edgeStyle=none;html=1;entryX=0.62;entryY=0.017;entryDx=0;entryDy=0;entryPerimeter=0;exitX=0.334;exitY=0.017;exitDx=0;exitDy=0;exitPerimeter=0;" edge="1" parent="1" source="53" target="57">
                    <mxGeometry relative="1" as="geometry">
                        <Array as="points">
                            <mxPoint x="380" y="50"/>
                            <mxPoint x="694" y="50"/>
                        </Array>
                    </mxGeometry>
                </mxCell>
                <mxCell id="51" style="edgeStyle=none;html=1;entryX=0.5;entryY=0;entryDx=0;entryDy=0;" edge="1" parent="1" source="53" target="57">
                    <mxGeometry relative="1" as="geometry">
                        <Array as="points">
                            <mxPoint x="400" y="60"/>
                            <mxPoint x="680" y="60"/>
                        </Array>
                    </mxGeometry>
                </mxCell>
                <mxCell id="52" style="edgeStyle=none;html=1;entryX=0.334;entryY=0.017;entryDx=0;entryDy=0;entryPerimeter=0;exitX=0.632;exitY=0.011;exitDx=0;exitDy=0;exitPerimeter=0;" edge="1" parent="1" source="53" target="57">
                    <mxGeometry relative="1" as="geometry">
                        <Array as="points">
                            <mxPoint x="416" y="70"/>
                            <mxPoint x="660" y="70"/>
                        </Array>
                    </mxGeometry>
                </mxCell>
                <mxCell id="53" value="Operation1" style="ellipse;whiteSpace=wrap;html=1;" vertex="1" parent="1">
                    <mxGeometry x="340" y="85" width="120" height="80" as="geometry"/>
                </mxCell>
                <mxCell id="54" style="edgeStyle=none;html=1;exitX=1;exitY=1;exitDx=0;exitDy=0;entryX=0.083;entryY=0.813;entryDx=0;entryDy=0;entryPerimeter=0;" edge="1" parent="1" source="57" target="61">
                    <mxGeometry relative="1" as="geometry">
                        <Array as="points">
                            <mxPoint x="720" y="170"/>
                            <mxPoint x="850" y="170"/>
                        </Array>
                    </mxGeometry>
                </mxCell>
                <mxCell id="55" style="edgeStyle=none;html=1;entryX=0.243;entryY=0.963;entryDx=0;entryDy=0;entryPerimeter=0;exitX=0.755;exitY=0.945;exitDx=0;exitDy=0;exitPerimeter=0;" edge="1" parent="1" source="57" target="61">
                    <mxGeometry relative="1" as="geometry">
                        <Array as="points">
                            <mxPoint x="710" y="180"/>
                            <mxPoint x="869" y="180"/>
                        </Array>
                    </mxGeometry>
                </mxCell>
                <mxCell id="56" style="edgeStyle=none;html=1;entryX=0.5;entryY=1;entryDx=0;entryDy=0;" edge="1" parent="1" source="57" target="61">
                    <mxGeometry relative="1" as="geometry">
                        <Array as="points">
                            <mxPoint x="680" y="200"/>
                            <mxPoint x="900" y="200"/>
                        </Array>
                    </mxGeometry>
                </mxCell>
                <mxCell id="57" value="Operation2" style="ellipse;whiteSpace=wrap;html=1;" vertex="1" parent="1">
                    <mxGeometry x="620" y="85" width="120" height="80" as="geometry"/>
                </mxCell>
                <mxCell id="58" style="edgeStyle=none;html=1;entryX=0;entryY=0.5;entryDx=0;entryDy=0;" edge="1" parent="1" source="61" target="62">
                    <mxGeometry relative="1" as="geometry">
                        <mxPoint x="1060" y="90" as="targetPoint"/>
                    </mxGeometry>
                </mxCell>
                <mxCell id="59" style="edgeStyle=none;html=1;entryX=0;entryY=0.5;entryDx=0;entryDy=0;" edge="1" parent="1" source="61" target="64">
                    <mxGeometry relative="1" as="geometry">
                        <mxPoint x="1060" y="160" as="targetPoint"/>
                    </mxGeometry>
                </mxCell>
                <mxCell id="60" style="edgeStyle=none;html=1;entryX=0;entryY=0.5;entryDx=0;entryDy=0;" edge="1" parent="1" source="61" target="63">
                    <mxGeometry relative="1" as="geometry">
                        <mxPoint x="1060" y="125" as="targetPoint"/>
                    </mxGeometry>
                </mxCell>
                <mxCell id="61" value="Operation3" style="ellipse;whiteSpace=wrap;html=1;" vertex="1" parent="1">
                    <mxGeometry x="840" y="85" width="120" height="80" as="geometry"/>
                </mxCell>
                <mxCell id="62" value="Item1 - full" style="rounded=0;whiteSpace=wrap;html=1;" vertex="1" parent="1">
                    <mxGeometry x="1040" y="45" width="80" height="40" as="geometry"/>
                </mxCell>
                <mxCell id="63" value="Item2 - full" style="rounded=0;whiteSpace=wrap;html=1;" vertex="1" parent="1">
                    <mxGeometry x="1040" y="105" width="80" height="40" as="geometry"/>
                </mxCell>
                <mxCell id="64" value="Item3 - full" style="rounded=0;whiteSpace=wrap;html=1;" vertex="1" parent="1">
                    <mxGeometry x="1040" y="165" width="80" height="40" as="geometry"/>
                </mxCell>
            </root>
        </mxGraphModel>
    </diagram>
    <diagram id="6MeCY5WTZH0LwfVsi5jG" name="Page-2">
        <mxGraphModel dx="1610" dy="742" grid="1" gridSize="10" guides="1" tooltips="1" connect="1" arrows="1" fold="1" page="1" pageScale="1" pageWidth="1100" pageHeight="850" math="0" shadow="0">
            <root>
                <mxCell id="0"/>
                <mxCell id="1" parent="0"/>
                <mxCell id="8quzg5BxPYVhQEgC3BWZ-12" style="edgeStyle=none;html=1;entryX=0;entryY=0.5;entryDx=0;entryDy=0;" edge="1" parent="1" source="8quzg5BxPYVhQEgC3BWZ-1" target="8quzg5BxPYVhQEgC3BWZ-3">
                    <mxGeometry relative="1" as="geometry">
                        <Array as="points">
                            <mxPoint x="250" y="225"/>
                            <mxPoint x="250" y="363"/>
                        </Array>
                    </mxGeometry>
                </mxCell>
                <mxCell id="8quzg5BxPYVhQEgC3BWZ-1" value="Item1" style="rounded=0;whiteSpace=wrap;html=1;" vertex="1" parent="1">
                    <mxGeometry x="70" y="200" width="100" height="50" as="geometry"/>
                </mxCell>
                <mxCell id="8quzg5BxPYVhQEgC3BWZ-24" style="edgeStyle=none;html=1;entryX=0;entryY=0.5;entryDx=0;entryDy=0;" edge="1" parent="1" source="8quzg5BxPYVhQEgC3BWZ-3" target="8quzg5BxPYVhQEgC3BWZ-19">
                    <mxGeometry relative="1" as="geometry">
                        <Array as="points">
                            <mxPoint x="450" y="360"/>
                            <mxPoint x="450" y="225"/>
                        </Array>
                    </mxGeometry>
                </mxCell>
                <mxCell id="8quzg5BxPYVhQEgC3BWZ-25" style="edgeStyle=none;html=1;entryX=0;entryY=0.5;entryDx=0;entryDy=0;" edge="1" parent="1" source="8quzg5BxPYVhQEgC3BWZ-3" target="8quzg5BxPYVhQEgC3BWZ-23">
                    <mxGeometry relative="1" as="geometry">
                        <Array as="points">
                            <mxPoint x="450" y="363"/>
                            <mxPoint x="450" y="293"/>
                        </Array>
                    </mxGeometry>
                </mxCell>
                <mxCell id="8quzg5BxPYVhQEgC3BWZ-26" style="edgeStyle=none;html=1;entryX=0;entryY=0.5;entryDx=0;entryDy=0;" edge="1" parent="1" source="8quzg5BxPYVhQEgC3BWZ-3" target="8quzg5BxPYVhQEgC3BWZ-22">
                    <mxGeometry relative="1" as="geometry"/>
                </mxCell>
                <mxCell id="8quzg5BxPYVhQEgC3BWZ-27" style="edgeStyle=none;html=1;entryX=0;entryY=0.5;entryDx=0;entryDy=0;" edge="1" parent="1" source="8quzg5BxPYVhQEgC3BWZ-3" target="8quzg5BxPYVhQEgC3BWZ-21">
                    <mxGeometry relative="1" as="geometry">
                        <Array as="points">
                            <mxPoint x="450" y="363"/>
                            <mxPoint x="450" y="430"/>
                        </Array>
                    </mxGeometry>
                </mxCell>
                <mxCell id="8quzg5BxPYVhQEgC3BWZ-28" style="edgeStyle=none;html=1;entryX=0;entryY=0.5;entryDx=0;entryDy=0;" edge="1" parent="1" source="8quzg5BxPYVhQEgC3BWZ-3" target="8quzg5BxPYVhQEgC3BWZ-20">
                    <mxGeometry relative="1" as="geometry">
                        <Array as="points">
                            <mxPoint x="450" y="363"/>
                            <mxPoint x="450" y="490"/>
                        </Array>
                    </mxGeometry>
                </mxCell>
                <mxCell id="8quzg5BxPYVhQEgC3BWZ-3" value="Operation1" style="ellipse;whiteSpace=wrap;html=1;" vertex="1" parent="1">
                    <mxGeometry x="300" y="322.5" width="120" height="80" as="geometry"/>
                </mxCell>
                <mxCell id="8quzg5BxPYVhQEgC3BWZ-18" style="edgeStyle=none;html=1;entryX=0;entryY=0.5;entryDx=0;entryDy=0;" edge="1" parent="1" source="8quzg5BxPYVhQEgC3BWZ-5" target="8quzg5BxPYVhQEgC3BWZ-3">
                    <mxGeometry relative="1" as="geometry">
                        <Array as="points">
                            <mxPoint x="250" y="490"/>
                            <mxPoint x="250" y="360"/>
                        </Array>
                    </mxGeometry>
                </mxCell>
                <mxCell id="8quzg5BxPYVhQEgC3BWZ-5" value="Item5" style="rounded=0;whiteSpace=wrap;html=1;" vertex="1" parent="1">
                    <mxGeometry x="70" y="470" width="100" height="45" as="geometry"/>
                </mxCell>
                <mxCell id="8quzg5BxPYVhQEgC3BWZ-17" style="edgeStyle=none;html=1;entryX=0;entryY=0.5;entryDx=0;entryDy=0;" edge="1" parent="1" source="8quzg5BxPYVhQEgC3BWZ-6" target="8quzg5BxPYVhQEgC3BWZ-3">
                    <mxGeometry relative="1" as="geometry">
                        <Array as="points">
                            <mxPoint x="250" y="430"/>
                            <mxPoint x="250" y="360"/>
                        </Array>
                    </mxGeometry>
                </mxCell>
                <mxCell id="8quzg5BxPYVhQEgC3BWZ-6" value="Item4" style="rounded=0;whiteSpace=wrap;html=1;" vertex="1" parent="1">
                    <mxGeometry x="70" y="405" width="100" height="45" as="geometry"/>
                </mxCell>
                <mxCell id="8quzg5BxPYVhQEgC3BWZ-16" style="edgeStyle=none;html=1;entryX=0;entryY=0.5;entryDx=0;entryDy=0;" edge="1" parent="1" source="8quzg5BxPYVhQEgC3BWZ-7" target="8quzg5BxPYVhQEgC3BWZ-3">
                    <mxGeometry relative="1" as="geometry"/>
                </mxCell>
                <mxCell id="8quzg5BxPYVhQEgC3BWZ-7" value="Item3" style="rounded=0;whiteSpace=wrap;html=1;" vertex="1" parent="1">
                    <mxGeometry x="70" y="340" width="100" height="45" as="geometry"/>
                </mxCell>
                <mxCell id="8quzg5BxPYVhQEgC3BWZ-15" style="edgeStyle=none;html=1;entryX=0;entryY=0.5;entryDx=0;entryDy=0;" edge="1" parent="1" source="8quzg5BxPYVhQEgC3BWZ-8" target="8quzg5BxPYVhQEgC3BWZ-3">
                    <mxGeometry relative="1" as="geometry">
                        <Array as="points">
                            <mxPoint x="250" y="290"/>
                            <mxPoint x="250" y="363"/>
                        </Array>
                    </mxGeometry>
                </mxCell>
                <mxCell id="8quzg5BxPYVhQEgC3BWZ-8" value="Item2" style="rounded=0;whiteSpace=wrap;html=1;" vertex="1" parent="1">
                    <mxGeometry x="70" y="270" width="100" height="45" as="geometry"/>
                </mxCell>
                <mxCell id="8quzg5BxPYVhQEgC3BWZ-9" value="Procedure processing" style="text;html=1;align=center;verticalAlign=middle;resizable=0;points=[];autosize=1;strokeColor=none;fillColor=none;" vertex="1" parent="1">
                    <mxGeometry x="60" y="110" width="140" height="30" as="geometry"/>
                </mxCell>
                <mxCell id="8quzg5BxPYVhQEgC3BWZ-19" value="Op1 Item1" style="rounded=0;whiteSpace=wrap;html=1;" vertex="1" parent="1">
                    <mxGeometry x="490" y="200" width="100" height="50" as="geometry"/>
                </mxCell>
                <mxCell id="8quzg5BxPYVhQEgC3BWZ-20" value="Op1 Item5" style="rounded=0;whiteSpace=wrap;html=1;" vertex="1" parent="1">
                    <mxGeometry x="490" y="470" width="100" height="45" as="geometry"/>
                </mxCell>
                <mxCell id="8quzg5BxPYVhQEgC3BWZ-21" value="Op1 Item4" style="rounded=0;whiteSpace=wrap;html=1;" vertex="1" parent="1">
                    <mxGeometry x="490" y="405" width="100" height="45" as="geometry"/>
                </mxCell>
                <mxCell id="8quzg5BxPYVhQEgC3BWZ-22" value="Op1 Item3" style="rounded=0;whiteSpace=wrap;html=1;" vertex="1" parent="1">
                    <mxGeometry x="490" y="340" width="100" height="45" as="geometry"/>
                </mxCell>
                <mxCell id="8quzg5BxPYVhQEgC3BWZ-23" value="Op1 Item2" style="rounded=0;whiteSpace=wrap;html=1;" vertex="1" parent="1">
                    <mxGeometry x="490" y="270" width="100" height="45" as="geometry"/>
                </mxCell>
                <mxCell id="8quzg5BxPYVhQEgC3BWZ-30" style="edgeStyle=none;html=1;entryX=0;entryY=0.5;entryDx=0;entryDy=0;" edge="1" parent="1" source="8quzg5BxPYVhQEgC3BWZ-34" target="8quzg5BxPYVhQEgC3BWZ-39">
                    <mxGeometry relative="1" as="geometry">
                        <Array as="points">
                            <mxPoint x="870" y="368"/>
                            <mxPoint x="870" y="298"/>
                        </Array>
                    </mxGeometry>
                </mxCell>
                <mxCell id="8quzg5BxPYVhQEgC3BWZ-31" style="edgeStyle=none;html=1;entryX=0;entryY=0.5;entryDx=0;entryDy=0;" edge="1" parent="1" source="8quzg5BxPYVhQEgC3BWZ-34" target="8quzg5BxPYVhQEgC3BWZ-38">
                    <mxGeometry relative="1" as="geometry"/>
                </mxCell>
                <mxCell id="8quzg5BxPYVhQEgC3BWZ-32" style="edgeStyle=none;html=1;entryX=0;entryY=0.5;entryDx=0;entryDy=0;" edge="1" parent="1" source="8quzg5BxPYVhQEgC3BWZ-34" target="8quzg5BxPYVhQEgC3BWZ-37">
                    <mxGeometry relative="1" as="geometry">
                        <Array as="points">
                            <mxPoint x="870" y="368"/>
                            <mxPoint x="870" y="435"/>
                        </Array>
                    </mxGeometry>
                </mxCell>
                <mxCell id="8quzg5BxPYVhQEgC3BWZ-34" value="Operation2" style="ellipse;whiteSpace=wrap;html=1;" vertex="1" parent="1">
                    <mxGeometry x="720" y="327.5" width="120" height="80" as="geometry"/>
                </mxCell>
                <mxCell id="8quzg5BxPYVhQEgC3BWZ-54" style="edgeStyle=none;html=1;entryX=0;entryY=0.5;entryDx=0;entryDy=0;" edge="1" parent="1" source="8quzg5BxPYVhQEgC3BWZ-37" target="8quzg5BxPYVhQEgC3BWZ-48">
                    <mxGeometry relative="1" as="geometry">
                        <Array as="points">
                            <mxPoint x="1040" y="430"/>
                            <mxPoint x="1040" y="365"/>
                        </Array>
                    </mxGeometry>
                </mxCell>
                <mxCell id="8quzg5BxPYVhQEgC3BWZ-37" value="Op2 Item4" style="rounded=0;whiteSpace=wrap;html=1;" vertex="1" parent="1">
                    <mxGeometry x="910" y="410" width="100" height="45" as="geometry"/>
                </mxCell>
                <mxCell id="8quzg5BxPYVhQEgC3BWZ-53" style="edgeStyle=none;html=1;entryX=0;entryY=0.5;entryDx=0;entryDy=0;" edge="1" parent="1" source="8quzg5BxPYVhQEgC3BWZ-38" target="8quzg5BxPYVhQEgC3BWZ-48">
                    <mxGeometry relative="1" as="geometry"/>
                </mxCell>
                <mxCell id="8quzg5BxPYVhQEgC3BWZ-38" value="Op2 Item3" style="rounded=0;whiteSpace=wrap;html=1;" vertex="1" parent="1">
                    <mxGeometry x="910" y="345" width="100" height="45" as="geometry"/>
                </mxCell>
                <mxCell id="8quzg5BxPYVhQEgC3BWZ-52" style="edgeStyle=none;html=1;entryX=0;entryY=0.5;entryDx=0;entryDy=0;" edge="1" parent="1" source="8quzg5BxPYVhQEgC3BWZ-39" target="8quzg5BxPYVhQEgC3BWZ-48">
                    <mxGeometry relative="1" as="geometry">
                        <Array as="points">
                            <mxPoint x="1040" y="300"/>
                            <mxPoint x="1040" y="365"/>
                        </Array>
                    </mxGeometry>
                </mxCell>
                <mxCell id="8quzg5BxPYVhQEgC3BWZ-39" value="Op2 Item2" style="rounded=0;whiteSpace=wrap;html=1;" vertex="1" parent="1">
                    <mxGeometry x="910" y="275" width="100" height="45" as="geometry"/>
                </mxCell>
                <mxCell id="8quzg5BxPYVhQEgC3BWZ-40" style="edgeStyle=none;html=1;entryX=0;entryY=0.5;entryDx=0;entryDy=0;" edge="1" parent="1">
                    <mxGeometry relative="1" as="geometry">
                        <mxPoint x="590" y="229.22999999999988" as="sourcePoint"/>
                        <mxPoint x="720" y="366.73" as="targetPoint"/>
                        <Array as="points">
                            <mxPoint x="670" y="229.23"/>
                            <mxPoint x="670" y="367.23"/>
                        </Array>
                    </mxGeometry>
                </mxCell>
                <mxCell id="8quzg5BxPYVhQEgC3BWZ-41" style="edgeStyle=none;html=1;entryX=0;entryY=0.5;entryDx=0;entryDy=0;" edge="1" parent="1">
                    <mxGeometry relative="1" as="geometry">
                        <mxPoint x="590" y="495.76846153846145" as="sourcePoint"/>
                        <mxPoint x="720" y="366.73" as="targetPoint"/>
                        <Array as="points">
                            <mxPoint x="670" y="494.23"/>
                            <mxPoint x="670" y="364.23"/>
                        </Array>
                    </mxGeometry>
                </mxCell>
                <mxCell id="8quzg5BxPYVhQEgC3BWZ-42" style="edgeStyle=none;html=1;entryX=0;entryY=0.5;entryDx=0;entryDy=0;" edge="1" parent="1">
                    <mxGeometry relative="1" as="geometry">
                        <mxPoint x="590" y="432.69153846153836" as="sourcePoint"/>
                        <mxPoint x="720" y="366.73" as="targetPoint"/>
                        <Array as="points">
                            <mxPoint x="670" y="434.23"/>
                            <mxPoint x="670" y="364.23"/>
                        </Array>
                    </mxGeometry>
                </mxCell>
                <mxCell id="8quzg5BxPYVhQEgC3BWZ-43" style="edgeStyle=none;html=1;entryX=0;entryY=0.5;entryDx=0;entryDy=0;" edge="1" parent="1">
                    <mxGeometry relative="1" as="geometry">
                        <mxPoint x="590" y="366.73" as="sourcePoint"/>
                        <mxPoint x="720" y="366.73" as="targetPoint"/>
                    </mxGeometry>
                </mxCell>
                <mxCell id="8quzg5BxPYVhQEgC3BWZ-44" style="edgeStyle=none;html=1;entryX=0;entryY=0.5;entryDx=0;entryDy=0;" edge="1" parent="1">
                    <mxGeometry relative="1" as="geometry">
                        <mxPoint x="590" y="295.76846153846145" as="sourcePoint"/>
                        <mxPoint x="720" y="366.73" as="targetPoint"/>
                        <Array as="points">
                            <mxPoint x="670" y="294.23"/>
                            <mxPoint x="670" y="367.23"/>
                        </Array>
                    </mxGeometry>
                </mxCell>
                <mxCell id="8quzg5BxPYVhQEgC3BWZ-45" style="edgeStyle=none;html=1;entryX=0;entryY=0.5;entryDx=0;entryDy=0;" edge="1" parent="1" source="8quzg5BxPYVhQEgC3BWZ-48" target="8quzg5BxPYVhQEgC3BWZ-51">
                    <mxGeometry relative="1" as="geometry">
                        <Array as="points">
                            <mxPoint x="1220" y="365.5"/>
                            <mxPoint x="1220" y="295.5"/>
                        </Array>
                    </mxGeometry>
                </mxCell>
                <mxCell id="8quzg5BxPYVhQEgC3BWZ-46" style="edgeStyle=none;html=1;entryX=0;entryY=0.5;entryDx=0;entryDy=0;" edge="1" parent="1" source="8quzg5BxPYVhQEgC3BWZ-48" target="8quzg5BxPYVhQEgC3BWZ-50">
                    <mxGeometry relative="1" as="geometry"/>
                </mxCell>
                <mxCell id="8quzg5BxPYVhQEgC3BWZ-47" style="edgeStyle=none;html=1;entryX=0;entryY=0.5;entryDx=0;entryDy=0;" edge="1" parent="1" source="8quzg5BxPYVhQEgC3BWZ-48" target="8quzg5BxPYVhQEgC3BWZ-49">
                    <mxGeometry relative="1" as="geometry">
                        <Array as="points">
                            <mxPoint x="1220" y="365.5"/>
                            <mxPoint x="1220" y="432.5"/>
                        </Array>
                    </mxGeometry>
                </mxCell>
                <mxCell id="8quzg5BxPYVhQEgC3BWZ-48" value="Operation3" style="ellipse;whiteSpace=wrap;html=1;" vertex="1" parent="1">
                    <mxGeometry x="1070" y="325" width="120" height="80" as="geometry"/>
                </mxCell>
                <mxCell id="8quzg5BxPYVhQEgC3BWZ-49" value="Op3 Item4" style="rounded=0;whiteSpace=wrap;html=1;" vertex="1" parent="1">
                    <mxGeometry x="1260" y="407.5" width="100" height="45" as="geometry"/>
                </mxCell>
                <mxCell id="8quzg5BxPYVhQEgC3BWZ-50" value="Op3 Item3" style="rounded=0;whiteSpace=wrap;html=1;" vertex="1" parent="1">
                    <mxGeometry x="1260" y="342.5" width="100" height="45" as="geometry"/>
                </mxCell>
                <mxCell id="8quzg5BxPYVhQEgC3BWZ-51" value="Op3 Item2" style="rounded=0;whiteSpace=wrap;html=1;" vertex="1" parent="1">
                    <mxGeometry x="1260" y="272.5" width="100" height="45" as="geometry"/>
                </mxCell>
            </root>
        </mxGraphModel>
    </diagram>
    <diagram id="Nrs07S07hvPGXZep5dZ7" name="Page-3">
        <mxGraphModel dx="1334" dy="615" grid="1" gridSize="10" guides="1" tooltips="1" connect="1" arrows="1" fold="1" page="1" pageScale="1" pageWidth="1100" pageHeight="850" math="0" shadow="0">
            <root>
                <mxCell id="0"/>
                <mxCell id="1" parent="0"/>
                <mxCell id="EQDI3kT7bLAgFb61joBJ-48" style="edgeStyle=none;html=1;entryX=0.06;entryY=0.761;entryDx=0;entryDy=0;entryPerimeter=0;" edge="1" parent="1" source="EQDI3kT7bLAgFb61joBJ-2" target="EQDI3kT7bLAgFb61joBJ-45">
                    <mxGeometry relative="1" as="geometry">
                        <Array as="points">
                            <mxPoint x="347" y="220"/>
                        </Array>
                    </mxGeometry>
                </mxCell>
                <mxCell id="EQDI3kT7bLAgFb61joBJ-2" value="Item1" style="rounded=0;whiteSpace=wrap;html=1;" vertex="1" parent="1">
                    <mxGeometry x="70" y="200" width="100" height="50" as="geometry"/>
                </mxCell>
                <mxCell id="EQDI3kT7bLAgFb61joBJ-58" style="edgeStyle=none;html=1;entryX=0.711;entryY=0.981;entryDx=0;entryDy=0;entryPerimeter=0;" edge="1" parent="1" source="EQDI3kT7bLAgFb61joBJ-10" target="EQDI3kT7bLAgFb61joBJ-45">
                    <mxGeometry relative="1" as="geometry">
                        <Array as="points">
                            <mxPoint x="425" y="490"/>
                        </Array>
                    </mxGeometry>
                </mxCell>
                <mxCell id="EQDI3kT7bLAgFb61joBJ-10" value="Item5" style="rounded=0;whiteSpace=wrap;html=1;" vertex="1" parent="1">
                    <mxGeometry x="70" y="470" width="100" height="45" as="geometry"/>
                </mxCell>
                <mxCell id="EQDI3kT7bLAgFb61joBJ-56" style="edgeStyle=none;html=1;entryX=0.5;entryY=1;entryDx=0;entryDy=0;" edge="1" parent="1" source="EQDI3kT7bLAgFb61joBJ-12" target="EQDI3kT7bLAgFb61joBJ-45">
                    <mxGeometry relative="1" as="geometry">
                        <Array as="points">
                            <mxPoint x="400" y="430"/>
                        </Array>
                    </mxGeometry>
                </mxCell>
                <mxCell id="EQDI3kT7bLAgFb61joBJ-12" value="Item4" style="rounded=0;whiteSpace=wrap;html=1;" vertex="1" parent="1">
                    <mxGeometry x="70" y="405" width="100" height="45" as="geometry"/>
                </mxCell>
                <mxCell id="EQDI3kT7bLAgFb61joBJ-54" style="edgeStyle=none;html=1;entryX=0.346;entryY=0.969;entryDx=0;entryDy=0;entryPerimeter=0;" edge="1" parent="1" source="EQDI3kT7bLAgFb61joBJ-14" target="EQDI3kT7bLAgFb61joBJ-45">
                    <mxGeometry relative="1" as="geometry">
                        <Array as="points">
                            <mxPoint x="380" y="360"/>
                        </Array>
                    </mxGeometry>
                </mxCell>
                <mxCell id="EQDI3kT7bLAgFb61joBJ-14" value="Item3" style="rounded=0;whiteSpace=wrap;html=1;" vertex="1" parent="1">
                    <mxGeometry x="70" y="340" width="100" height="45" as="geometry"/>
                </mxCell>
                <mxCell id="EQDI3kT7bLAgFb61joBJ-52" style="edgeStyle=none;html=1;entryX=0;entryY=1;entryDx=0;entryDy=0;" edge="1" parent="1" source="EQDI3kT7bLAgFb61joBJ-16" target="EQDI3kT7bLAgFb61joBJ-45">
                    <mxGeometry relative="1" as="geometry">
                        <Array as="points">
                            <mxPoint x="360" y="293"/>
                        </Array>
                    </mxGeometry>
                </mxCell>
                <mxCell id="EQDI3kT7bLAgFb61joBJ-16" value="Item2" style="rounded=0;whiteSpace=wrap;html=1;" vertex="1" parent="1">
                    <mxGeometry x="70" y="270" width="100" height="45" as="geometry"/>
                </mxCell>
                <mxCell id="EQDI3kT7bLAgFb61joBJ-17" value="Pipeline processing" style="text;html=1;align=center;verticalAlign=middle;resizable=0;points=[];autosize=1;strokeColor=none;fillColor=none;" vertex="1" parent="1">
                    <mxGeometry x="65" y="110" width="130" height="30" as="geometry"/>
                </mxCell>
                <mxCell id="EQDI3kT7bLAgFb61joBJ-51" style="edgeStyle=none;html=1;entryX=1;entryY=0;entryDx=0;entryDy=0;exitX=0.083;exitY=0.188;exitDx=0;exitDy=0;exitPerimeter=0;" edge="1" parent="1" source="EQDI3kT7bLAgFb61joBJ-45" target="EQDI3kT7bLAgFb61joBJ-46">
                    <mxGeometry relative="1" as="geometry">
                        <Array as="points">
                            <mxPoint x="350" y="30"/>
                            <mxPoint x="722" y="30"/>
                        </Array>
                    </mxGeometry>
                </mxCell>
                <mxCell id="EQDI3kT7bLAgFb61joBJ-53" style="edgeStyle=none;html=1;entryX=0.771;entryY=0.047;entryDx=0;entryDy=0;entryPerimeter=0;exitX=0;exitY=0;exitDx=0;exitDy=0;" edge="1" parent="1" source="EQDI3kT7bLAgFb61joBJ-45" target="EQDI3kT7bLAgFb61joBJ-46">
                    <mxGeometry relative="1" as="geometry">
                        <Array as="points">
                            <mxPoint x="358" y="40"/>
                            <mxPoint x="713" y="40"/>
                        </Array>
                    </mxGeometry>
                </mxCell>
                <mxCell id="EQDI3kT7bLAgFb61joBJ-55" style="edgeStyle=none;html=1;entryX=0.62;entryY=0.017;entryDx=0;entryDy=0;entryPerimeter=0;exitX=0.334;exitY=0.017;exitDx=0;exitDy=0;exitPerimeter=0;" edge="1" parent="1" source="EQDI3kT7bLAgFb61joBJ-45" target="EQDI3kT7bLAgFb61joBJ-46">
                    <mxGeometry relative="1" as="geometry">
                        <Array as="points">
                            <mxPoint x="380" y="50"/>
                            <mxPoint x="694" y="50"/>
                        </Array>
                    </mxGeometry>
                </mxCell>
                <mxCell id="EQDI3kT7bLAgFb61joBJ-57" style="edgeStyle=none;html=1;entryX=0.5;entryY=0;entryDx=0;entryDy=0;" edge="1" parent="1" source="EQDI3kT7bLAgFb61joBJ-45" target="EQDI3kT7bLAgFb61joBJ-46">
                    <mxGeometry relative="1" as="geometry">
                        <Array as="points">
                            <mxPoint x="400" y="60"/>
                            <mxPoint x="680" y="60"/>
                        </Array>
                    </mxGeometry>
                </mxCell>
                <mxCell id="EQDI3kT7bLAgFb61joBJ-59" style="edgeStyle=none;html=1;entryX=0.334;entryY=0.017;entryDx=0;entryDy=0;entryPerimeter=0;exitX=0.632;exitY=0.011;exitDx=0;exitDy=0;exitPerimeter=0;" edge="1" parent="1" source="EQDI3kT7bLAgFb61joBJ-45" target="EQDI3kT7bLAgFb61joBJ-46">
                    <mxGeometry relative="1" as="geometry">
                        <Array as="points">
                            <mxPoint x="416" y="70"/>
                            <mxPoint x="660" y="70"/>
                        </Array>
                    </mxGeometry>
                </mxCell>
                <mxCell id="EQDI3kT7bLAgFb61joBJ-45" value="Operation1" style="ellipse;whiteSpace=wrap;html=1;" vertex="1" parent="1">
                    <mxGeometry x="340" y="85" width="120" height="80" as="geometry"/>
                </mxCell>
                <mxCell id="EQDI3kT7bLAgFb61joBJ-60" style="edgeStyle=none;html=1;exitX=1;exitY=1;exitDx=0;exitDy=0;entryX=0.083;entryY=0.813;entryDx=0;entryDy=0;entryPerimeter=0;" edge="1" parent="1" source="EQDI3kT7bLAgFb61joBJ-46" target="EQDI3kT7bLAgFb61joBJ-47">
                    <mxGeometry relative="1" as="geometry">
                        <Array as="points">
                            <mxPoint x="720" y="170"/>
                            <mxPoint x="850" y="170"/>
                        </Array>
                    </mxGeometry>
                </mxCell>
                <mxCell id="EQDI3kT7bLAgFb61joBJ-61" style="edgeStyle=none;html=1;entryX=0.243;entryY=0.963;entryDx=0;entryDy=0;entryPerimeter=0;exitX=0.755;exitY=0.945;exitDx=0;exitDy=0;exitPerimeter=0;" edge="1" parent="1" source="EQDI3kT7bLAgFb61joBJ-46" target="EQDI3kT7bLAgFb61joBJ-47">
                    <mxGeometry relative="1" as="geometry">
                        <Array as="points">
                            <mxPoint x="710" y="180"/>
                            <mxPoint x="869" y="180"/>
                        </Array>
                    </mxGeometry>
                </mxCell>
                <mxCell id="EQDI3kT7bLAgFb61joBJ-62" style="edgeStyle=none;html=1;entryX=0.5;entryY=1;entryDx=0;entryDy=0;" edge="1" parent="1" source="EQDI3kT7bLAgFb61joBJ-46" target="EQDI3kT7bLAgFb61joBJ-47">
                    <mxGeometry relative="1" as="geometry">
                        <Array as="points">
                            <mxPoint x="680" y="200"/>
                            <mxPoint x="900" y="200"/>
                        </Array>
                    </mxGeometry>
                </mxCell>
                <mxCell id="EQDI3kT7bLAgFb61joBJ-46" value="Operation2" style="ellipse;whiteSpace=wrap;html=1;" vertex="1" parent="1">
                    <mxGeometry x="620" y="85" width="120" height="80" as="geometry"/>
                </mxCell>
                <mxCell id="EQDI3kT7bLAgFb61joBJ-63" style="edgeStyle=none;html=1;entryX=0;entryY=0.5;entryDx=0;entryDy=0;" edge="1" parent="1" source="EQDI3kT7bLAgFb61joBJ-47" target="EQDI3kT7bLAgFb61joBJ-66">
                    <mxGeometry relative="1" as="geometry">
                        <mxPoint x="1060" y="90" as="targetPoint"/>
                    </mxGeometry>
                </mxCell>
                <mxCell id="EQDI3kT7bLAgFb61joBJ-64" style="edgeStyle=none;html=1;entryX=0;entryY=0.5;entryDx=0;entryDy=0;" edge="1" parent="1" source="EQDI3kT7bLAgFb61joBJ-47" target="EQDI3kT7bLAgFb61joBJ-69">
                    <mxGeometry relative="1" as="geometry">
                        <mxPoint x="1060" y="160" as="targetPoint"/>
                    </mxGeometry>
                </mxCell>
                <mxCell id="EQDI3kT7bLAgFb61joBJ-65" style="edgeStyle=none;html=1;entryX=0;entryY=0.5;entryDx=0;entryDy=0;" edge="1" parent="1" source="EQDI3kT7bLAgFb61joBJ-47" target="EQDI3kT7bLAgFb61joBJ-68">
                    <mxGeometry relative="1" as="geometry">
                        <mxPoint x="1060" y="125" as="targetPoint"/>
                    </mxGeometry>
                </mxCell>
                <mxCell id="EQDI3kT7bLAgFb61joBJ-47" value="Operation3" style="ellipse;whiteSpace=wrap;html=1;" vertex="1" parent="1">
                    <mxGeometry x="840" y="85" width="120" height="80" as="geometry"/>
                </mxCell>
                <mxCell id="EQDI3kT7bLAgFb61joBJ-66" value="Item1 - full" style="rounded=0;whiteSpace=wrap;html=1;" vertex="1" parent="1">
                    <mxGeometry x="1040" y="45" width="80" height="40" as="geometry"/>
                </mxCell>
                <mxCell id="EQDI3kT7bLAgFb61joBJ-68" value="Item2 - full" style="rounded=0;whiteSpace=wrap;html=1;" vertex="1" parent="1">
                    <mxGeometry x="1040" y="105" width="80" height="40" as="geometry"/>
                </mxCell>
                <mxCell id="EQDI3kT7bLAgFb61joBJ-69" value="Item3 - full" style="rounded=0;whiteSpace=wrap;html=1;" vertex="1" parent="1">
                    <mxGeometry x="1040" y="165" width="80" height="40" as="geometry"/>
                </mxCell>
            </root>
        </mxGraphModel>
    </diagram>
</mxfile>